<svg id="visual" viewBox="0 0 900 600" width="900" height="600" xmlns="http://www.w3.org/2000/svg" xmlns:xlink="http://www.w3.org/1999/xlink" version="1.1"><path d="M0 472L75 472.5C150 473 300 474 450 444.8C600 415.7 750 356.3 825 326.7L900 297L900 601L825 601C750 601 600 601 450 601C300 601 150 601 75 601L0 601Z" fill="#8c7d83"></path><path d="M0 554L75 548.7C150 543.3 300 532.7 450 521.5C600 510.3 750 498.7 825 492.8L900 487L900 601L825 601C750 601 600 601 450 601C300 601 150 601 75 601L0 601Z" fill="#aca4a7"></path><path d="M0 536L75 526.2C150 516.3 300 496.7 450 502.8C600 509 750 541 825 557L900 573L900 601L825 601C750 601 600 601 450 601C300 601 150 601 75 601L0 601Z" fill="#cccccc"></path></svg>