<svg id="visual" viewBox="0 0 900 600" width="900" height="600" xmlns="http://www.w3.org/2000/svg" xmlns:xlink="http://www.w3.org/1999/xlink" version="1.1"><path d="M0 528L30 520.7C60 513.3 120 498.7 180 490.2C240 481.7 300 479.3 360 480.3C420 481.3 480 485.7 540 495.8C600 506 660 522 720 524.7C780 527.3 840 516.7 870 511.3L900 506L900 601L870 601C840 601 780 601 720 601C660 601 600 601 540 601C480 601 420 601 360 601C300 601 240 601 180 601C120 601 60 601 30 601L0 601Z" fill="#FFFFFF" stroke-linecap="round" stroke-linejoin="miter"></path></svg>