<svg id="visual" viewBox="0 0 900 600" width="900" height="600" xmlns="http://www.w3.org/2000/svg" xmlns:xlink="http://www.w3.org/1999/xlink" version="1.1"><path d="M0 535L75 540C150 545 300 555 450 525.7C600 496.3 750 427.7 825 393.3L900 359L900 601L825 601C750 601 600 601 450 601C300 601 150 601 75 601L0 601Z" fill="#cccccc"></path><path d="M0 454L75 465.5C150 477 300 500 450 504C600 508 750 493 825 485.5L900 478L900 601L825 601C750 601 600 601 450 601C300 601 150 601 75 601L0 601Z" fill="#99baad"></path><path d="M0 461L75 480.5C150 500 300 539 450 548.5C600 558 750 538 825 528L900 518L900 601L825 601C750 601 600 601 450 601C300 601 150 601 75 601L0 601Z" fill="#62a88f"></path><path d="M0 583L75 573.5C150 564 300 545 450 542.8C600 540.7 750 555.3 825 562.7L900 570L900 601L825 601C750 601 600 601 450 601C300 601 150 601 75 601L0 601Z" fill="#009473"></path></svg>