<svg id="visual" viewBox="0 0 900 600" width="900" height="600" xmlns="http://www.w3.org/2000/svg" xmlns:xlink="http://www.w3.org/1999/xlink" version="1.1"><path d="M0 398L75 387.8C150 377.7 300 357.3 450 346.5C600 335.7 750 334.3 825 333.7L900 333L900 601L825 601C750 601 600 601 450 601C300 601 150 601 75 601L0 601Z" fill="#cccccc"></path><path d="M0 407L75 420.8C150 434.7 300 462.3 450 477.7C600 493 750 496 825 497.5L900 499L900 601L825 601C750 601 600 601 450 601C300 601 150 601 75 601L0 601Z" fill="#e5e5e5"></path><path d="M0 539L75 546C150 553 300 567 450 569C600 571 750 561 825 556L900 551L900 601L825 601C750 601 600 601 450 601C300 601 150 601 75 601L0 601Z" fill="#ffffff"></path></svg>