<svg id="visual" viewBox="0 0 900 600" width="900" height="600" xmlns="http://www.w3.org/2000/svg" xmlns:xlink="http://www.w3.org/1999/xlink" version="1.1"><path d="M0 431L75 413.8C150 396.7 300 362.3 450 348.8C600 335.3 750 342.7 825 346.3L900 350L900 601L825 601C750 601 600 601 450 601C300 601 150 601 75 601L0 601Z" fill="#cccccc"></path><path d="M0 458L75 458C150 458 300 458 450 464.2C600 470.3 750 482.7 825 488.8L900 495L900 601L825 601C750 601 600 601 450 601C300 601 150 601 75 601L0 601Z" fill="#e5e5e5"></path><path d="M0 532L75 540.5C150 549 300 566 450 556.8C600 547.7 750 512.3 825 494.7L900 477L900 601L825 601C750 601 600 601 450 601C300 601 150 601 75 601L0 601Z" fill="#ffffff"></path></svg>