<svg id="visual" viewBox="0 0 900 600" width="900" height="600" xmlns="http://www.w3.org/2000/svg" xmlns:xlink="http://www.w3.org/1999/xlink" version="1.1"><path d="M0 412L75 418.7C150 425.3 300 438.7 450 426.8C600 415 750 378 825 359.5L900 341L900 601L825 601C750 601 600 601 450 601C300 601 150 601 75 601L0 601Z" fill="#cccccc"></path><path d="M0 453L75 465.7C150 478.3 300 503.7 450 502.7C600 501.7 750 474.3 825 460.7L900 447L900 601L825 601C750 601 600 601 450 601C300 601 150 601 75 601L0 601Z" fill="#e5e5e5"></path><path d="M0 485L75 492.3C150 499.7 300 514.3 450 519.3C600 524.3 750 519.7 825 517.3L900 515L900 601L825 601C750 601 600 601 450 601C300 601 150 601 75 601L0 601Z" fill="#ffffff"></path></svg>