<svg id="visual" viewBox="0 0 900 600" width="900" height="600" xmlns="http://www.w3.org/2000/svg" xmlns:xlink="http://www.w3.org/1999/xlink" version="1.1"><path d="M0 414L75 427C150 440 300 466 450 448.5C600 431 750 370 825 339.5L900 309L900 601L825 601C750 601 600 601 450 601C300 601 150 601 75 601L0 601Z" fill="#cccccc"></path><path d="M0 502L75 508.7C150 515.3 300 528.7 450 537.3C600 546 750 550 825 552L900 554L900 601L825 601C750 601 600 601 450 601C300 601 150 601 75 601L0 601Z" fill="#e5e5e5"></path><path d="M0 488L75 501.2C150 514.3 300 540.7 450 554.2C600 567.7 750 568.3 825 568.7L900 569L900 601L825 601C750 601 600 601 450 601C300 601 150 601 75 601L0 601Z" fill="#ffffff"></path></svg>