<svg id="visual" viewBox="0 0 900 600" width="900" height="600" xmlns="http://www.w3.org/2000/svg" xmlns:xlink="http://www.w3.org/1999/xlink" version="1.1"><path d="M0 290L75 311.3C150 332.7 300 375.3 450 381C600 386.7 750 355.3 825 339.7L900 324L900 601L825 601C750 601 600 601 450 601C300 601 150 601 75 601L0 601Z" fill="#8c7d83"></path><path d="M0 394L75 411.7C150 429.3 300 464.7 450 486.5C600 508.3 750 516.7 825 520.8L900 525L900 601L825 601C750 601 600 601 450 601C300 601 150 601 75 601L0 601Z" fill="#aca4a7"></path><path d="M0 556L75 543C150 530 300 504 450 506.7C600 509.3 750 540.7 825 556.3L900 572L900 601L825 601C750 601 600 601 450 601C300 601 150 601 75 601L0 601Z" fill="#cccccc"></path></svg>