<svg id="visual" viewBox="0 0 900 600" width="900" height="600" xmlns="http://www.w3.org/2000/svg" xmlns:xlink="http://www.w3.org/1999/xlink" version="1.1"><path d="M0 447L75 445.3C150 443.7 300 440.3 450 421.2C600 402 750 367 825 349.5L900 332L900 601L825 601C750 601 600 601 450 601C300 601 150 601 75 601L0 601Z" fill="#fdfafb"></path><path d="M0 441L75 455.3C150 469.7 300 498.3 450 500.2C600 502 750 477 825 464.5L900 452L900 601L825 601C750 601 600 601 450 601C300 601 150 601 75 601L0 601Z" fill="#a9a6a6"></path><path d="M0 497L75 500.8C150 504.7 300 512.3 450 521.2C600 530 750 540 825 545L900 550L900 601L825 601C750 601 600 601 450 601C300 601 150 601 75 601L0 601Z" fill="#5c5959"></path></svg>