<svg id="visual" viewBox="0 0 900 600" width="900" height="600" xmlns="http://www.w3.org/2000/svg" xmlns:xlink="http://www.w3.org/1999/xlink" version="1.1"><path d="M0 349L75 376.2C150 403.3 300 457.7 450 469.8C600 482 750 452 825 437L900 422L900 601L825 601C750 601 600 601 450 601C300 601 150 601 75 601L0 601Z" fill="#cccccc"></path><path d="M0 485L75 489.7C150 494.3 300 503.7 450 487.3C600 471 750 429 825 408L900 387L900 601L825 601C750 601 600 601 450 601C300 601 150 601 75 601L0 601Z" fill="#e5e5e5"></path><path d="M0 554L75 555C150 556 300 558 450 553.5C600 549 750 538 825 532.5L900 527L900 601L825 601C750 601 600 601 450 601C300 601 150 601 75 601L0 601Z" fill="#ffffff"></path></svg>