<svg id="visual" viewBox="0 0 900 600" width="900" height="600" xmlns="http://www.w3.org/2000/svg" xmlns:xlink="http://www.w3.org/1999/xlink" version="1.1"><path d="M0 540L75 533C150 526 300 512 450 500.3C600 488.7 750 479.3 825 474.7L900 470L900 601L825 601C750 601 600 601 450 601C300 601 150 601 75 601L0 601Z" fill="#cccccc"></path><path d="M0 519L75 521.7C150 524.3 300 529.7 450 508.7C600 487.7 750 440.3 825 416.7L900 393L900 601L825 601C750 601 600 601 450 601C300 601 150 601 75 601L0 601Z" fill="#e5e5e5"></path><path d="M0 576L75 573.7C150 571.3 300 566.7 450 567.8C600 569 750 576 825 579.5L900 583L900 601L825 601C750 601 600 601 450 601C300 601 150 601 75 601L0 601Z" fill="#ffffff"></path></svg>