<svg id="visual" viewBox="0 0 900 600" width="900" height="600" xmlns="http://www.w3.org/2000/svg" xmlns:xlink="http://www.w3.org/1999/xlink" version="1.1"><path d="M0 369L75 394.8C150 420.7 300 472.3 450 503.7C600 535 750 546 825 551.5L900 557L900 601L825 601C750 601 600 601 450 601C300 601 150 601 75 601L0 601Z" fill="#ae9ee8"></path><path d="M0 591L75 589C150 587 300 583 450 557.5C600 532 750 485 825 461.5L900 438L900 601L825 601C750 601 600 601 450 601C300 601 150 601 75 601L0 601Z" fill="#d7cef4"></path><path d="M0 491L75 502C150 513 300 535 450 544.7C600 554.3 750 551.7 825 550.3L900 549L900 601L825 601C750 601 600 601 450 601C300 601 150 601 75 601L0 601Z" fill="#ffffff"></path></svg>