<svg id="visual" viewBox="0 0 900 600" width="900" height="600" xmlns="http://www.w3.org/2000/svg" xmlns:xlink="http://www.w3.org/1999/xlink" version="1.1"><path d="M0 301L75 322.8C150 344.7 300 388.3 450 393.8C600 399.3 750 366.7 825 350.3L900 334L900 601L825 601C750 601 600 601 450 601C300 601 150 601 75 601L0 601Z" fill="#ae9ee8"></path><path d="M0 413L75 421.2C150 429.3 300 445.7 450 460.2C600 474.7 750 487.3 825 493.7L900 500L900 601L825 601C750 601 600 601 450 601C300 601 150 601 75 601L0 601Z" fill="#d7cef4"></path><path d="M0 588L75 588.8C150 589.7 300 591.3 450 590C600 588.7 750 584.3 825 582.2L900 580L900 601L825 601C750 601 600 601 450 601C300 601 150 601 75 601L0 601Z" fill="#ffffff"></path></svg>