<svg id="visual" viewBox="0 0 900 600" width="900" height="600" xmlns="http://www.w3.org/2000/svg" xmlns:xlink="http://www.w3.org/1999/xlink" version="1.1"><path d="M0 457L75 452.2C150 447.3 300 437.7 450 422C600 406.3 750 384.7 825 373.8L900 363L900 601L825 601C750 601 600 601 450 601C300 601 150 601 75 601L0 601Z" fill="#ae9ee8"></path><path d="M0 462L75 466.3C150 470.7 300 479.3 450 500.5C600 521.7 750 555.3 825 572.2L900 589L900 601L825 601C750 601 600 601 450 601C300 601 150 601 75 601L0 601Z" fill="#d7cef4"></path><path d="M0 491L75 505.8C150 520.7 300 550.3 450 562.7C600 575 750 570 825 567.5L900 565L900 601L825 601C750 601 600 601 450 601C300 601 150 601 75 601L0 601Z" fill="#ffffff"></path></svg>