<svg id="visual" viewBox="0 0 900 600" width="900" height="600" xmlns="http://www.w3.org/2000/svg" xmlns:xlink="http://www.w3.org/1999/xlink" version="1.1"><path d="M0 576L75 576.2C150 576.3 300 576.7 450 551C600 525.3 750 473.7 825 447.8L900 422L900 601L825 601C750 601 600 601 450 601C300 601 150 601 75 601L0 601Z" fill="#ae9ee8"></path><path d="M0 572L75 564.3C150 556.7 300 541.3 450 524C600 506.7 750 487.3 825 477.7L900 468L900 601L825 601C750 601 600 601 450 601C300 601 150 601 75 601L0 601Z" fill="#d7cef4"></path><path d="M0 542L75 544.8C150 547.7 300 553.3 450 545.3C600 537.3 750 515.7 825 504.8L900 494L900 601L825 601C750 601 600 601 450 601C300 601 150 601 75 601L0 601Z" fill="#ffffff"></path></svg>