<svg id="visual" viewBox="0 0 900 600" width="900" height="600" xmlns="http://www.w3.org/2000/svg" xmlns:xlink="http://www.w3.org/1999/xlink" version="1.1"><path d="M0 551L75 539.5C150 528 300 505 450 500.8C600 496.7 750 511.3 825 518.7L900 526L900 601L825 601C750 601 600 601 450 601C300 601 150 601 75 601L0 601Z" fill="#ae9ee8"></path><path d="M0 582L75 581.8C150 581.7 300 581.3 450 564.8C600 548.3 750 515.7 825 499.3L900 483L900 601L825 601C750 601 600 601 450 601C300 601 150 601 75 601L0 601Z" fill="#d7cef4"></path><path d="M0 500L75 509.3C150 518.7 300 537.3 450 548.7C600 560 750 564 825 566L900 568L900 601L825 601C750 601 600 601 450 601C300 601 150 601 75 601L0 601Z" fill="#ffffff"></path></svg>