<svg id="visual" viewBox="0 0 900 600" width="900" height="600" xmlns="http://www.w3.org/2000/svg" xmlns:xlink="http://www.w3.org/1999/xlink" version="1.1"><path d="M0 351L75 362.3C150 373.7 300 396.3 450 408.5C600 420.7 750 422.3 825 423.2L900 424L900 601L825 601C750 601 600 601 450 601C300 601 150 601 75 601L0 601Z" fill="#cccccc"></path><path d="M0 452L75 450.3C150 448.7 300 445.3 450 437.7C600 430 750 418 825 412L900 406L900 601L825 601C750 601 600 601 450 601C300 601 150 601 75 601L0 601Z" fill="#e5e5e5"></path><path d="M0 530L75 537.7C150 545.3 300 560.7 450 553.7C600 546.7 750 517.3 825 502.7L900 488L900 601L825 601C750 601 600 601 450 601C300 601 150 601 75 601L0 601Z" fill="#ffffff"></path></svg>