<svg id="visual" viewBox="0 0 960 540" width="960" height="540" xmlns="http://www.w3.org/2000/svg" xmlns:xlink="http://www.w3.org/1999/xlink" version="1.1"><path d="M0 443L53.3 429.5C106.7 416 213.3 389 320 381.2C426.7 373.3 533.3 384.7 640 393.8C746.7 403 853.3 410 906.7 413.5L960 417L960 541L906.7 541C853.3 541 746.7 541 640 541C533.3 541 426.7 541 320 541C213.3 541 106.7 541 53.3 541L0 541Z" fill="#7c8c9d"></path><path d="M0 395L53.3 398.5C106.7 402 213.3 409 320 413.7C426.7 418.3 533.3 420.7 640 428.5C746.7 436.3 853.3 449.7 906.7 456.3L960 463L960 541L906.7 541C853.3 541 746.7 541 640 541C533.3 541 426.7 541 320 541C213.3 541 106.7 541 53.3 541L0 541Z" fill="#a6b1bd"></path><path d="M0 439L53.3 438C106.7 437 213.3 435 320 436.8C426.7 438.7 533.3 444.3 640 446.5C746.7 448.7 853.3 447.3 906.7 446.7L960 446L960 541L906.7 541C853.3 541 746.7 541 640 541C533.3 541 426.7 541 320 541C213.3 541 106.7 541 53.3 541L0 541Z" fill="#d2d7dd"></path><path d="M0 488L53.3 491.5C106.7 495 213.3 502 320 499C426.7 496 533.3 483 640 476.8C746.7 470.7 853.3 471.3 906.7 471.7L960 472L960 541L906.7 541C853.3 541 746.7 541 640 541C533.3 541 426.7 541 320 541C213.3 541 106.7 541 53.3 541L0 541Z" fill="#ffffff"></path></svg>