<svg id="visual" viewBox="0 0 900 600" width="900" height="600" xmlns="http://www.w3.org/2000/svg" xmlns:xlink="http://www.w3.org/1999/xlink" version="1.1"><path d="M0 517L75 521.8C150 526.7 300 536.3 450 508.3C600 480.3 750 414.7 825 381.8L900 349L900 601L825 601C750 601 600 601 450 601C300 601 150 601 75 601L0 601Z" fill="#8c7d83"></path><path d="M0 382L75 383.7C150 385.3 300 388.7 450 418C600 447.3 750 502.7 825 530.3L900 558L900 601L825 601C750 601 600 601 450 601C300 601 150 601 75 601L0 601Z" fill="#aca4a7"></path><path d="M0 488L75 501.5C150 515 300 542 450 558.7C600 575.3 750 581.7 825 584.8L900 588L900 601L825 601C750 601 600 601 450 601C300 601 150 601 75 601L0 601Z" fill="#cccccc"></path></svg>