<svg id="visual" viewBox="0 0 960 540" width="960" height="540" xmlns="http://www.w3.org/2000/svg" xmlns:xlink="http://www.w3.org/1999/xlink" version="1.1"><path d="M0 475L22.8 474.3C45.7 473.7 91.3 472.3 137 468.7C182.7 465 228.3 459 274 456.3C319.7 453.7 365.3 454.3 411.2 455C457 455.7 503 456.3 548.8 459.5C594.7 462.7 640.3 468.3 686 467.3C731.7 466.3 777.3 458.7 823 454.3C868.7 450 914.3 449 937.2 448.5L960 448L960 541L937.2 541C914.3 541 868.7 541 823 541C777.3 541 731.7 541 686 541C640.3 541 594.7 541 548.8 541C503 541 457 541 411.2 541C365.3 541 319.7 541 274 541C228.3 541 182.7 541 137 541C91.3 541 45.7 541 22.8 541L0 541Z" fill="#7c8c9d"></path><path d="M0 479L22.8 482.7C45.7 486.3 91.3 493.7 137 493C182.7 492.3 228.3 483.7 274 479.8C319.7 476 365.3 477 411.2 479.3C457 481.7 503 485.3 548.8 488.2C594.7 491 640.3 493 686 493.7C731.7 494.3 777.3 493.7 823 494.3C868.7 495 914.3 497 937.2 498L960 499L960 541L937.2 541C914.3 541 868.7 541 823 541C777.3 541 731.7 541 686 541C640.3 541 594.7 541 548.8 541C503 541 457 541 411.2 541C365.3 541 319.7 541 274 541C228.3 541 182.7 541 137 541C91.3 541 45.7 541 22.8 541L0 541Z" fill="#a6b1bd"></path><path d="M0 517L22.8 511.8C45.7 506.7 91.3 496.3 137 491.7C182.7 487 228.3 488 274 492C319.7 496 365.3 503 411.2 506.8C457 510.7 503 511.3 548.8 506.7C594.7 502 640.3 492 686 490C731.7 488 777.3 494 823 496.5C868.7 499 914.3 498 937.2 497.5L960 497L960 541L937.2 541C914.3 541 868.7 541 823 541C777.3 541 731.7 541 686 541C640.3 541 594.7 541 548.8 541C503 541 457 541 411.2 541C365.3 541 319.7 541 274 541C228.3 541 182.7 541 137 541C91.3 541 45.7 541 22.8 541L0 541Z" fill="#d2d7dd"></path><path d="M0 503L22.8 507.3C45.7 511.7 91.3 520.3 137 520.8C182.7 521.3 228.3 513.7 274 511.2C319.7 508.7 365.3 511.3 411.2 511.7C457 512 503 510 548.8 513.2C594.7 516.3 640.3 524.7 686 525.5C731.7 526.3 777.3 519.7 823 517.5C868.7 515.3 914.3 517.7 937.2 518.8L960 520L960 541L937.2 541C914.3 541 868.7 541 823 541C777.3 541 731.7 541 686 541C640.3 541 594.7 541 548.8 541C503 541 457 541 411.2 541C365.3 541 319.7 541 274 541C228.3 541 182.7 541 137 541C91.3 541 45.7 541 22.8 541L0 541Z" fill="#ffffff"></path></svg>