<svg id="visual" viewBox="0 0 900 600" width="900" height="600" xmlns="http://www.w3.org/2000/svg" xmlns:xlink="http://www.w3.org/1999/xlink" version="1.1"><path d="M0 280L75 314.2C150 348.3 300 416.7 450 419.7C600 422.7 750 360.3 825 329.2L900 298L900 601L825 601C750 601 600 601 450 601C300 601 150 601 75 601L0 601Z" fill="#a38e97"></path><path d="M0 410L75 418.7C150 427.3 300 444.7 450 452.5C600 460.3 750 458.7 825 457.8L900 457L900 601L825 601C750 601 600 601 450 601C300 601 150 601 75 601L0 601Z" fill="#b7adb1"></path><path d="M0 508L75 501.5C150 495 300 482 450 492C600 502 750 535 825 551.5L900 568L900 601L825 601C750 601 600 601 450 601C300 601 150 601 75 601L0 601Z" fill="#cccccc"></path></svg>