<svg id="visual" viewBox="0 0 960 540" width="960" height="540" xmlns="http://www.w3.org/2000/svg" xmlns:xlink="http://www.w3.org/1999/xlink" version="1.1"><path d="M0 205L53.3 196.5C106.7 188 213.3 171 320 166.7C426.7 162.3 533.3 170.7 640 173.3C746.7 176 853.3 173 906.7 171.5L960 170L960 0L906.7 0C853.3 0 746.7 0 640 0C533.3 0 426.7 0 320 0C213.3 0 106.7 0 53.3 0L0 0Z" fill="#b5cde6"></path><path d="M0 123L53.3 126.2C106.7 129.3 213.3 135.7 320 130.2C426.7 124.7 533.3 107.3 640 99.5C746.7 91.7 853.3 93.3 906.7 94.2L960 95L960 0L906.7 0C853.3 0 746.7 0 640 0C533.3 0 426.7 0 320 0C213.3 0 106.7 0 53.3 0L0 0Z" fill="#dae6f3"></path><path d="M0 97L53.3 86.7C106.7 76.3 213.3 55.7 320 49.7C426.7 43.7 533.3 52.3 640 62.7C746.7 73 853.3 85 906.7 91L960 97L960 0L906.7 0C853.3 0 746.7 0 640 0C533.3 0 426.7 0 320 0C213.3 0 106.7 0 53.3 0L0 0Z" fill="#ffffff"></path></svg>