<svg id="visual" viewBox="0 0 960 540" width="960" height="540" xmlns="http://www.w3.org/2000/svg" xmlns:xlink="http://www.w3.org/1999/xlink" version="1.1"><path d="M0 205L53.3 214C106.7 223 213.3 241 320 247.8C426.7 254.7 533.3 250.3 640 246.2C746.7 242 853.3 238 906.7 236L960 234L960 0L906.7 0C853.3 0 746.7 0 640 0C533.3 0 426.7 0 320 0C213.3 0 106.7 0 53.3 0L0 0Z" fill="#7c8c9d"></path><path d="M0 185L53.3 186C106.7 187 213.3 189 320 185.5C426.7 182 533.3 173 640 166.8C746.7 160.7 853.3 157.3 906.7 155.7L960 154L960 0L906.7 0C853.3 0 746.7 0 640 0C533.3 0 426.7 0 320 0C213.3 0 106.7 0 53.3 0L0 0Z" fill="#a6b1bd"></path><path d="M0 153L53.3 152C106.7 151 213.3 149 320 141C426.7 133 533.3 119 640 110.5C746.7 102 853.3 99 906.7 97.5L960 96L960 0L906.7 0C853.3 0 746.7 0 640 0C533.3 0 426.7 0 320 0C213.3 0 106.7 0 53.3 0L0 0Z" fill="#d2d7dd"></path><path d="M0 38L53.3 38C106.7 38 213.3 38 320 46.8C426.7 55.7 533.3 73.3 640 79.3C746.7 85.3 853.3 79.7 906.7 76.8L960 74L960 0L906.7 0C853.3 0 746.7 0 640 0C533.3 0 426.7 0 320 0C213.3 0 106.7 0 53.3 0L0 0Z" fill="#ffffff"></path></svg>